<mxfile host="app.diagrams.net" modified="2023-08-02T09:24:46.395Z" agent="Mozilla/5.0 (Windows NT 10.0; Win64; x64) AppleWebKit/537.36 (KHTML, like Gecko) Chrome/115.0.0.0 Safari/537.36 Edg/115.0.1901.188" etag="ig5uw4d2SliEDh_8Loyi" version="21.6.6" type="github">
  <diagram name="Page-1" id="b98fa263-6416-c6ec-5b7d-78bf54ef71d0">
    <mxGraphModel dx="1671" dy="1137" grid="1" gridSize="10" guides="1" tooltips="1" connect="1" arrows="1" fold="1" page="1" pageScale="1.5" pageWidth="1169" pageHeight="826" background="none" math="0" shadow="0">
      <root>
        <mxCell id="0" style=";html=1;" />
        <mxCell id="1" style=";html=1;" parent="0" />
        <mxCell id="PKGDW48XH8u3NRs4ERn_-1" value="" style="fontColor=#0066CC;verticalAlign=top;verticalLabelPosition=bottom;labelPosition=center;align=center;html=1;outlineConnect=0;fillColor=#CCCCCC;strokeColor=#6881B3;gradientColor=none;gradientDirection=north;strokeWidth=2;shape=mxgraph.networks.wireless_hub;" vertex="1" parent="1">
          <mxGeometry x="700" y="440" width="100" height="85" as="geometry" />
        </mxCell>
        <mxCell id="PKGDW48XH8u3NRs4ERn_-2" value="IoT Hub" style="text;html=1;align=center;verticalAlign=middle;resizable=0;points=[];autosize=1;strokeColor=none;fillColor=none;" vertex="1" parent="1">
          <mxGeometry x="715" y="525" width="70" height="30" as="geometry" />
        </mxCell>
        <mxCell id="PKGDW48XH8u3NRs4ERn_-3" value="" style="fontColor=#0066CC;verticalAlign=top;verticalLabelPosition=bottom;labelPosition=center;align=center;html=1;outlineConnect=0;fillColor=#CCCCCC;strokeColor=#6881B3;gradientColor=none;gradientDirection=north;strokeWidth=2;shape=mxgraph.networks.users;" vertex="1" parent="1">
          <mxGeometry x="210" y="440" width="90" height="100" as="geometry" />
        </mxCell>
        <mxCell id="PKGDW48XH8u3NRs4ERn_-5" value="" style="edgeStyle=orthogonalEdgeStyle;rounded=0;orthogonalLoop=1;jettySize=auto;html=1;" edge="1" parent="1" source="PKGDW48XH8u3NRs4ERn_-4" target="PKGDW48XH8u3NRs4ERn_-3">
          <mxGeometry relative="1" as="geometry" />
        </mxCell>
        <mxCell id="PKGDW48XH8u3NRs4ERn_-4" value="Users" style="text;html=1;strokeColor=none;fillColor=none;align=center;verticalAlign=middle;whiteSpace=wrap;rounded=0;" vertex="1" parent="1">
          <mxGeometry x="225" y="555" width="60" height="30" as="geometry" />
        </mxCell>
        <mxCell id="PKGDW48XH8u3NRs4ERn_-6" value="" style="fontColor=#0066CC;verticalAlign=top;verticalLabelPosition=bottom;labelPosition=center;align=center;html=1;outlineConnect=0;fillColor=#CCCCCC;strokeColor=#6881B3;gradientColor=none;gradientDirection=north;strokeWidth=2;shape=mxgraph.networks.hub;" vertex="1" parent="1">
          <mxGeometry x="715" y="830" width="100" height="30" as="geometry" />
        </mxCell>
        <mxCell id="PKGDW48XH8u3NRs4ERn_-7" value="LED lighter" style="text;html=1;strokeColor=none;fillColor=none;align=center;verticalAlign=middle;whiteSpace=wrap;rounded=0;" vertex="1" parent="1">
          <mxGeometry x="735" y="890" width="60" height="30" as="geometry" />
        </mxCell>
        <mxCell id="PKGDW48XH8u3NRs4ERn_-8" value="" style="fontColor=#0066CC;verticalAlign=top;verticalLabelPosition=bottom;labelPosition=center;align=center;html=1;outlineConnect=0;fillColor=#CCCCCC;strokeColor=#6881B3;gradientColor=none;gradientDirection=north;strokeWidth=2;shape=mxgraph.networks.router;" vertex="1" parent="1">
          <mxGeometry x="1190" y="495" width="100" height="30" as="geometry" />
        </mxCell>
        <mxCell id="PKGDW48XH8u3NRs4ERn_-9" value="Router" style="text;html=1;strokeColor=none;fillColor=none;align=center;verticalAlign=middle;whiteSpace=wrap;rounded=0;" vertex="1" parent="1">
          <mxGeometry x="1210" y="540" width="60" height="30" as="geometry" />
        </mxCell>
        <mxCell id="PKGDW48XH8u3NRs4ERn_-10" style="edgeStyle=orthogonalEdgeStyle;rounded=0;orthogonalLoop=1;jettySize=auto;html=1;exitX=0.5;exitY=1;exitDx=0;exitDy=0;exitPerimeter=0;entryX=0.5;entryY=0;entryDx=0;entryDy=0;entryPerimeter=0;" edge="1" parent="1" source="PKGDW48XH8u3NRs4ERn_-8" target="PKGDW48XH8u3NRs4ERn_-8">
          <mxGeometry relative="1" as="geometry" />
        </mxCell>
        <mxCell id="PKGDW48XH8u3NRs4ERn_-11" value="" style="fontColor=#0066CC;verticalAlign=top;verticalLabelPosition=bottom;labelPosition=center;align=center;html=1;outlineConnect=0;fillColor=#CCCCCC;strokeColor=#6881B3;gradientColor=none;gradientDirection=north;strokeWidth=2;shape=mxgraph.networks.mobile;" vertex="1" parent="1">
          <mxGeometry x="440" y="100" width="50" height="100" as="geometry" />
        </mxCell>
        <mxCell id="PKGDW48XH8u3NRs4ERn_-12" value="iOS/Android application" style="text;html=1;strokeColor=none;fillColor=none;align=center;verticalAlign=middle;whiteSpace=wrap;rounded=0;" vertex="1" parent="1">
          <mxGeometry x="435" y="220" width="60" height="30" as="geometry" />
        </mxCell>
      </root>
    </mxGraphModel>
  </diagram>
</mxfile>
